# xmcd
#
# Track frame offsets: 
#        150
#        12830
#        33690
#        47941
#        66849
#        78947
#        95371
#        111915
#        127573
#        140866
#        158148
#
# Disc length: 2344 seconds
#
# Revision: 0
# Processed by: cddbd v1.5.2PL0 Copyright (c) Steve Scherf et al.
# Submitted via: ExactAudioCopy v0.99pb4
#
DISCID=8e09260b
DTITLE=Two Easy - it's just Two Easy
DYEAR=2005
DGENRE=Blues
TTITLE0=Mercury Blues
TTITLE1=Unemployed Ranger
TTITLE2=Card of Gold
TTITLE3=My Baby Blues
TTITLE4=I Fought the Mall
TTITLE5=Pyschadelic Wedding Day
TTITLE6=Hey Hey My My
TTITLE7=Old Nash Rambler
TTITLE8=Johnny Eats Wood
TTITLE9=New Carissa
TTITLE10=Who Do You Trust
EXTD=
EXTT0=
EXTT1=
EXTT2=
EXTT3=
EXTT4=
EXTT5=
EXTT6=
EXTT7=
EXTT8=
EXTT9=
EXTT10=
PLAYORDER=
